<svg xmlns="http://www.w3.org/2000/svg" width="198.42" height="35" data-bbox="0 0 198.41 17.01" data-type="color"><switch><g><path fill="#002355" d="M110.03 9.25v2.68c0 3.04-2.18 5.08-5.33 5.08-3.09 0-5.38-2.28-5.38-5.08 0-3.35 2.7-4.42 2.79-4.46-.13-.06-1.82-1.06-1.82-3.32 0-2.59 2.2-4.15 4.41-4.15 2.43 0 4.35 1.55 4.35 4.15h-1.84c0-1.3-1.14-2.36-2.51-2.36-1.37 0-2.51 1.07-2.51 2.36 0 1.6 1.44 2.55 2.48 2.55h.47v1.78h-.47c-2.07 0-3.43 1.66-3.43 3.45 0 1.8 1.57 3.25 3.46 3.25 1.22 0 3.47-.48 3.47-3.43V7.47h3.64v1.78zm-40.92 7.14h2.03V.53h-2.03Zm-7.89-4.58L49.94.35v16.04h2.03V5.11l11.28 11.46V.53h-2.03ZM11.75.53h-2.5L2.03 8.27V.53H0v15.86h2.03V8.65l7.62 7.74h2.7L4.44 8.46Zm18.9 7.93c0 4.6-3.57 8.11-8.09 8.11s-8.09-3.51-8.09-8.11S18.04.35 22.56.35c4.53 0 8.09 3.5 8.09 8.11m-2.07 0c0-3.48-2.56-6.16-6.02-6.16-3.45 0-6.02 2.68-6.02 6.16s2.56 6.16 6.02 6.16c3.46 0 6.02-2.68 6.02-6.16m6.37 7.93h9.14v-1.97h-7.11V9.44h5.43V7.47h-5.43V2.49h7.11V.53h-9.14Zm129.25-5.95c0 2.75-1.74 4.18-4.28 4.18s-4.28-1.43-4.28-4.18V.53h-2.03v9.83c0 3.89 2.63 6.21 6.31 6.21 3.7 0 6.31-2.32 6.31-6.21V.53h-2.03zm-80.36-1h3.59v4.31c-.98.58-2.32.87-3.59.87-3.45 0-6.02-2.68-6.02-6.16s2.56-6.16 6.02-6.16c1.6 0 3.08.56 4.12 1.47l1.38-1.41C87.91 1.04 85.98.35 83.84.35c-4.52 0-8.09 3.51-8.09 8.11s3.57 8.11 8.09 8.11c2.07 0 4.15-.67 5.62-1.79v-7.3h-5.62zm88.04 6.95h9.14v-1.97h-7.11V9.44h5.43V7.47h-5.43V2.49h7.11V.53h-9.14zM142.97.35l7.71 16.04h-2.18l-1.96-4.15h-7.13l-1.96 4.15h-2.18zm2.71 10L143 4.68l-2.67 5.67zm-13.08 1.57c0 2.88-2.21 4.47-5.46 4.47h-5.53V.53h5.09c3.05 0 4.85 1.97 4.85 4.2 0 1.61-.62 2.64-1.65 3.33 1.61.5 2.7 1.71 2.7 3.86m-8.97-4.45h3.21c1.67 0 2.67-1.18 2.67-2.59 0-1.34-1-2.39-2.67-2.39h-3.21zm6.91 4.36c0-1.47-1.03-2.39-3.17-2.39h-3.74v4.98h3.74c2.15 0 3.17-1.05 3.17-2.59m60.24-2.55h-1.87v7.1h-2.03V.53h5.09c3.05 0 4.85 1.97 4.85 4.2 0 2.03-.84 4.04-3.73 4.46l5.32 7.2h-2.45zm-1.87-1.81h3.21c1.67 0 2.67-1.18 2.67-2.59 0-1.34-1-2.39-2.67-2.39h-3.21z" data-color="1"/></g></switch><text xml:space="preserve" x="98.836" y="34.836" style="font-size:18.6667px;font-family:Avenir;-inkscape-font-specification:&quot;Avenir, Normal&quot;;text-align:center;direction:rtl;text-anchor:middle;opacity:1;fill:#002355;paint-order:markers fill stroke;fill-opacity:1;font-weight:400;font-style:normal;font-stretch:normal;font-variant:normal;font-variant-ligatures:normal;font-variant-caps:normal;font-variant-numeric:normal;font-variant-east-asian:normal"><tspan x="98.836" y="34.836">MetalPrint</tspan></text></svg>