<svg xmlns="http://www.w3.org/2000/svg" width="3200" height="675"><path d="M192.193 612.243c-6.048.384-11.248.77-26.858 1.022l-45.644.736-4.356 4.36c-6.312 6.315-6.316 15.632-.004 21.948l4.358 4.358 28.09.41c9.402.137 12.686.338 16.222.555 3.313-8.833 9.38-16.463 17.756-22.694 2.817-3.92 6.359-7.463 10.436-10.695zm1445.082.441c-3.303.325-7.32.575-23.317.598l-24.244.035c-5.333 11.079-11.834 21.667-18.902 32.018h38.26c21.338 0 33.018.21 38.796.43 5.146-7.31 9.205-13.563 12.893-18.582-14.478-2.692-22.815-7.768-23.486-14.499zm567.445.069c-2.564 1.946-4.289 3.453-7.246 5.61-28.93 21.09-40.03 24.283-44.024 12.665-.603-1.755-.685-3.96-.84-6.101-5.75 1.133-9.348-.63-11.16-5.899-.563-1.637-.61-3.718-.783-5.693h-30.592c-7.72 8.906-16.407 18.965-20.304 23.332-4.602 5.157-3.704 4.479-7.575 8.88l100.446-.1c73.14-.074 92.117.072 100.863.814-.999-5.947 5.905-15.446 20.504-30.131 1.037-1.043 2.357-1.812 3.438-2.824l-54.264-.291-48.463-.262zm-1159.172.033c-8.946 11.608-10.121 13.527-21.648 28.412-1.828 2.36-1.818 2.633-3.453 4.762l85.232-.3 77.363-.272c11.776-7.284 22.294-15.092 31.62-23.33 2.637-2.901 5.464-5.76 7.804-8.723h-87.555c-49.15 0-81.283-.26-89.363-.549zm-614.318.38c-27.281 7.142-62.864 14.383-113.309 23.618l-9.82 1.799 21.992 7.107c16.416-.177 40.51-.355 90.508-.355 83.727 0 105.65.161 115.217.96-.491-5.455 5.33-13.964 17.613-27.095 2.095-2.24 4.261-3.84 6.377-5.877l-82.703-.101-45.875-.055zm549.43.042-56.106.057-55.068.058c-2.84 4.37-4.96 7.227-7.676 11.715-7.69 12.7-10.487 17.054-16.18 18.746-.459.745-1.029 1.68-1.45 2.338 39.38-.392 100.122-.703 111.13-.191 6.688-8.855 15.904-20.759 25.35-32.723zm1063.652.01-105.336.05-80.528.04c18.15 6.956 30.801 14.74 36.186 23.876 3.59 2.615 6.7 5.312 9.027 8.15h113.684c4.18-4.995 8.48-10.164 11.58-13.845l15.387-18.271zm-757.996.093c-5.453 11.075-12.332 21.774-20.516 32.024h13.59c1.139-10.67 3.823-21.378 7.67-32.024h-.744zm95.822.024c-7.696 10.383-14.2 21.25-19.234 32h119.953c9.733-10.822 18.329-21.474 25.914-32h-126.634zm1231.488 5.16c-1.627 2.597-3.016 4.425-4.453 6.838-5.459 9.167-10.435 17.267-11.06 18-.156.182-2.788.338-4.932.498-.373.613-.55.89-.897 1.457l1.358-.002 111.945 55.023 111.945 55.026 62.055.748 62.055.75 82.67 21.488 82.664 21.49-1494.309.428-1494.304.428-4.36 4.36c-7.817 7.817-5.168 21.503 4.975 25.702 1.466.608 703.612.993 1560.308.856l1557.647-.25 5.021-5.024c4.484-4.484 5.022-5.745 5.022-11.77 0-13.767 10.822-10.113-156.75-52.9l-147.414-37.64H2828.09l-112.008-55.102-102.457-50.404zm-875.508 19.143c-7.281-.275-11.665.102-13.533.923-1.72 1.906-3.06 3.426-6.144 6.713-.027.029-.024.032-.051.06h52.447c18.26 0 23.024.338 30.444.61-8.786-1.943-18.545-3.73-29.883-5.215-13.144-1.72-24.745-2.77-33.28-3.091z" style="display:inline;fill:#cbcccb;fill-opacity:1" transform="translate(-78.286 -306.604)"/><path d="M1850.882 968.14c-36.632-9.463-34.61-70.467 2.948-88.907 20.447-10.04 47.254-3.563 55.604 13.434 4.601 9.366 4.275 10.888-2.533 11.821-11.702 1.604-13.118 1.266-14.519-3.46-3.811-12.86-25.416-13.757-36.867-1.53-10.488 11.2-14.621 34.133-8.054 44.693 8.615 13.855 29.767 11.3 38.013-4.59 2.766-5.33 2.976-5.358 17.966-2.444l4.333.843-2.715 5.484c-9.366 18.912-33.64 29.96-54.176 24.655zm415.299-.586c-6.61-1.87-8.381-2.952-15.525-9.485-13.207-12.077-14.29-35.13-2.677-56.921 20.987-39.375 81.826-34.223 86.042 7.285 3.766 37.09-32.869 69.017-67.84 59.121zm26.259-16.754c21.843-10.135 29.339-47.748 11.55-57.96-17.5-10.047-40.794 7.124-43.772 32.268-2.518 21.259 13.776 34.25 32.222 25.692zm78.956 17.078c-24.672-5.81-33.906-36.888-19.623-66.041 16.882-34.457 70.16-37.22 80.234-4.162 1.894 6.213 2.134 6.008-8.289 7.076l-8.632.884-2.36-5.35c-10.747-24.358-46.11-3.762-47.353 27.579-1.067 26.905 29.645 36.137 40.586 12.199 2.417-5.288 2.619-5.408 7.814-4.658 16.235 2.346 16.062 2.155 10.23 11.352-11.125 17.54-32.08 25.954-52.607 21.12zm181.328-.441c-23.971-6.446-32.698-34.136-19.754-62.683 19.153-42.24 83.87-39.881 87.777 3.2 3.502 38.618-31.57 69.286-68.023 59.483zm27.998-17.495c11.451-5.707 20.425-21.793 20.355-36.487-.138-28.836-35.287-31.751-49.117-4.075-14.372 28.761 3.073 53.363 28.762 40.562zm-958.282 17.123c0-1.2 18.536-85.603 19.507-88.824 1.153-3.825 56.293-2.87 63.02 1.092 20.583 12.124 12.61 43.372-12.256 48.037-5.89 1.105-5.891 1.114-1.405 6.437 3.828 4.542 16.467 29.46 16.467 32.464 0 1.44-2.226 1.756-10.203 1.452l-10.203-.39-5.614-13.433c-8.978-21.486-12.05-24.567-24.49-24.567-5.18 0-6.793.514-7.32 2.334-.372 1.283-2.326 9.983-4.341 19.333l-3.665 17h-9.749c-5.361 0-9.748-.42-9.748-.935zm60.666-52.53c14.272-3.88 18.598-19.06 6.397-22.447-7.417-2.06-31.054-1.873-31.098.245-.019.917-1.153 6.617-2.522 12.667l-2.488 11 12.19-.007c6.703-.004 14.588-.66 17.521-1.458zm31.556 52.36c.244-.607 12.444-21.282 27.111-45.944l26.667-44.84 11.361-.056 11.361-.055 7.209 42.333c3.965 23.284 7.47 43.984 7.79 46l.581 3.667h-18.504l-1.9-10.333-1.898-10.334-18.853-.369-18.852-.369-6.274 10.702-6.275 10.703h-9.984c-5.492 0-9.785-.497-9.54-1.104zm67.157-39.228c-3.209-18.744-4.663-30.693-3.903-32.055.495-.887-.01-.712-1.117.388-1.873 1.858-21.026 34.119-21.026 35.416 0 .321 6.027.584 13.394.584h13.393zm135.777 38c.369-1.284 5.01-21.984 10.313-46l9.643-43.667h9.777c5.378 0 9.777.266 9.777.592 0 .325-3.6 16.958-8 36.962-4.4 20.004-8 36.837-8 37.408 0 .57 11.044 1.038 24.542 1.038h24.542l-.683 3c-.375 1.65-1.242 5.25-1.926 8l-1.244 5h-34.705c-32.419 0-34.661-.154-34.036-2.333zm75.733 1.212c.244-.616 12.444-21.304 27.11-45.974l26.667-44.854 11.334-.024 11.333-.024 7.134 42.332c3.924 23.282 7.449 43.982 7.833 45.998l.7 3.667h-18.837l-.875-6.333c-.48-3.484-1.305-8.134-1.831-10.334l-.957-4-18.86-.37-18.86-.369-6.174 10.703-6.173 10.703h-9.995c-5.496 0-9.794-.504-9.55-1.12zm67.241-38.546c-2.327-11.405-4.858-31.156-4.141-32.316.46-.743.35-1.342-.244-1.331-.896.016-20.105 32.237-21.523 36.103-.248.676 5.544 1.21 13.106 1.21h13.55zm77.93 28.818c1.379-6.133 5.958-26.947 10.177-46.253l7.67-35.102 24.046.438c37.262.68 48.425 9.956 47.855 39.766-.687 35.928-19.209 50.568-65.364 51.664l-26.89.639zm45.938-5.29c23.383-5.888 33.594-48.952 13.956-58.859-7.485-3.776-25.001-3.327-25.95.665-2.844 11.975-12.671 57.179-12.671 58.287 0 1.852 17.2 1.787 24.665-.093zm275.335 15.71c0-.237 3.6-16.543 8-36.238 10.196-45.638 10.93-40.666-6-40.666-7.7 0-14-.27-14-.601 0-.331.65-3.631 1.444-7.334l1.444-6.732H2528.062l-.876 3.489c-.481 1.919-1.217 5.2-1.635 7.29l-.76 3.8-14.145.377-14.144.377-6.981 31.334c-3.84 17.233-7.646 34.483-8.46 38.333l-1.477 7h-9.906c-5.448 0-9.905-.193-9.905-.43zm167.975-1.18c-.014-.948 4.337-21.713 9.667-46.145l9.691-44.42 29.334.42c38.091.546 43.237 3.09 44.438 21.964.965 15.152-6.465 24.816-22.157 28.818-6.965 1.777-7.018 1.828-4.349 4.245 2.639 2.387 16.18 27.761 18 33.727.894 2.934.683 3-9.537 3h-10.45l-6.308-15.085c-8.215-19.65-11.424-22.892-22.676-22.905l-8.218-.01-4.128 18.666-4.128 18.667-9.577.392c-7.138.292-9.583-.048-9.602-1.333zm64.944-53.48c8.403-4.405 11.218-13.96 5.608-19.038-4.836-4.377-34.142-4.665-35.11-.345-3.497 15.594-4.75 21.415-4.75 22.056 0 1.834 30.14-.518 34.252-2.673zm71.046 53.563c-.019-.994 4.332-21.799 9.667-46.233l9.701-44.426 26.667.426c23.953.382 27.21.709 32 3.208 15.79 8.239 15.389 31.234-.66 37.882-4.214 1.745-5.37 4.002-2.051 4.002 1.075 0 4.075 2.12 6.667 4.711 11.114 11.115 2.74 33.127-14.923 39.226-7.551 2.608-67.02 3.675-67.068 1.204zm55.368-14.436c10.666-2.463 15.204-14.133 7.77-19.98-3.243-2.552-5.003-2.77-19.619-2.43L2791.2 930l-2.325 10c-1.28 5.5-2.35 10.75-2.38 11.667-.067 2.024 24.256 2.3 32.611.37zm8.19-41.776c5.9-3.072 8.1-9.68 4.726-14.198-3.205-4.293-6.367-5.102-20.557-5.264l-11.641-.133-.822 3.666a344.408 344.408 0 0 1-2.018 8.334c-.658 2.566-1.2 6.095-1.204 7.841l-.01 3.175 13.667-.62c9.001-.408 15.097-1.364 17.855-2.8zm33.81 56.803c0-1.174 18.524-85.561 19.478-88.732.587-1.95 2.331-2.333 10.638-2.333h9.935l-.896 3.571c-.493 1.964-4.301 18.914-8.463 37.667l-7.567 34.095 24.438.363c13.892.206 24.437.897 24.437 1.601 0 .681-.65 4.268-1.444 7.97L2930.22 968h-34.557c-19.005 0-34.556-.42-34.556-.935zm76 .031c0-.496 12.072-21.196 26.827-46L2990.76 876h22.157l1.388 7c.764 3.85 4.102 23.2 7.42 43 3.317 19.8 6.346 37.35 6.732 39 .675 2.892.364 3-8.633 3-10.509 0-9.806.798-11.747-13.333l-1.007-7.334h-38.51l-6.06 10.303-6.06 10.302-9.667.031c-5.317.017-9.667-.376-9.667-.873zm64.743-52.33c-1.509-9.478-3.043-17.516-3.41-17.861-.366-.346-5.285 7.409-10.93 17.233L2977.245 932h27.346zm38.425 50.9c.946-3.241 19.499-87.968 19.499-89.046 0-2.532 48.71.135 54 2.957 13.322 7.107 17.333 15.227 17.333 35.09 0 28.867-14.823 47.713-40.85 51.936-15.444 2.506-50.793 1.844-49.982-.936zm54.751-16.882c10.453-6.125 16.85-18.92 17.057-34.117.245-17.93-5.162-23.306-23.453-23.323l-11.962-.01-6.409 28.666c-3.525 15.767-6.426 29.798-6.447 31.182-.064 4.226 22.925 2.46 31.214-2.398zm43.356 17.55c-.032-.917 4.309-21.617 9.645-46L3157.73 876h35.688c39.896 0 37.182-.765 34.285 9.667l-1.389 5h-51.824l-.821 3.666a343.971 343.971 0 0 1-2.018 8.334c-2.54 9.91-3.99 9.333 23.455 9.333 13.567 0 24.667.27 24.667.601 0 .33-.65 3.63-1.444 7.333l-1.444 6.733h-25.197c-25.037 0-25.202.019-25.889 3-3.466 15.046-4.656 20.48-4.673 21.333-.011.55 12.28 1 27.314 1h27.333l-.01 3c0 1.65-.632 5.25-1.396 8l-1.389 5h-37.27c-28.897 0-37.284-.375-37.33-1.667zM481.144 782.515c-4.063-1.622-5.324-3.504-5.35-7.987-.02-3.349-.25-3.449-6.532-2.845-7.85.754-10.627-.086-39.017-11.798-22.222-9.168-198.613-74.957-199.098-74.257-33.756 48.753-40.707 59.737-40.707 64.32 0 16.967-32.902 37.27-43.394 26.778-7.557-7.556-5.11-13.87 23.905-61.692 28.388-46.787 26.417-41.842 17.883-44.873-10.387-3.69-16.27-10.106-15.137-16.508 4.512-25.495 29.442-43.062 67.705-47.708l6.295-.765 35.23-50.924c19.376-28.008 35.083-51.083 34.906-51.278-.467-.51-34.848 5.893-52.06 9.696-16.59 3.667-50 13.981-50 15.437 0 .527 6.998 1.395 15.55 1.93 19.969 1.248 22.342 1.892 22.855 6.21.545 4.58-.212 4.788-28.373 7.795-13.218 1.411-30.894 3.478-39.28 4.593-25.768 3.425-35.623 2.093-38.977-5.268-4.298-9.434 12.39-50.378 26.138-64.126 38.425-38.425 212.385-63.237 298.103-42.518 55.819 13.492 73.19 48.838 49.585 100.895-22.016 48.555-43.985 57.967-203.453 87.162l-57.186 10.47 37.852 12.251a132546.88 132546.88 0 0 0 77.853 25.166c91.228 29.453 104.507 39.432 104.643 78.643l.023 6.65 4.89-7.316c11.535-17.258 34.42-36.553 57.104-48.145 14.528-7.423 14.846-7.69 33.122-27.666l18.454-20.171h-20.179c-33.2 0-35.14-7.594-9.067-35.468 23.38-24.993 47.96-37.372 75.946-38.247 18.285-.572 15.075 6.113-4.387 9.138-15.137 2.352-18.55 3.675-18.55 7.19 0 3.725 3.505 4.237 20.942 3.061l14.94-1.008 63.377-52.553c137.128-113.71 170.93-133.906 183.358-109.545 6.878 13.48 5.455 16.91-39.793 95.92-16.953 29.6-30.823 54.132-30.823 54.514 0 .381 6.789.275 15.087-.236 13.546-.834 27.58.604 27.58 2.827 0 .335-2.755 4.19-6.122 8.565-3.367 4.375-11.096 16.171-17.175 26.213-12.748 21.056-10.956 19.977-33.465 20.162l-16.095.133-15.655 30.645-15.655 30.644 3.356 3.356c6.708 6.708 11.936 4.323 44.303-20.21l4.159-3.152 4.09 6.288c4.907 7.544 6.157 5.335-12.82 22.666-58.11 53.067-100.809 60.832-105.011 19.097-1.115-11.077 2.45-20.784 21.006-57.176 7.247-14.213 12.981-26.037 12.743-26.276-.24-.239-23.674.33-52.078 1.265l-51.643 1.7-60.97 60.698c-71.72 71.404-76.665 74.927-94.931 67.638zM361.773 576.632c75.555-19.635 105.709-32.273 125.46-52.583 26.69-27.443.225-35.666-92.659-28.789-54.38 4.027-48.886 2.719-49.83 11.864-.992 9.616-3.031 13.365-28.466 52.336-24.982 38.276-23.74 35.616-15.505 33.22 3.483-1.013 30.933-8.235 61-16.048zm381.12 15.453c18.949-1.4 34.608-2.743 34.797-2.982 2.275-2.877 64.963-109.33 64.592-109.685-.676-.65-138.337 112.962-138.434 114.249-.1 1.326-.554 1.344 39.045-1.582zm1484.564 189.828c-18.608-10.096 24.99-62.612 68.347-82.33 8.658-3.937 10.867-5.89 27.431-24.266l18.015-19.984-17.739-.325c-35.288-.646-36.949-9.254-7.501-38.878 24.843-24.991 62.911-41.457 80.438-34.793 8.65 3.288 3.187 6.824-14.369 9.298-20.426 2.879-23.678 11.96-3.64 10.161 4.767-.427 11.793-.781 15.613-.787l6.945-.009 51.055-42.376c154.268-128.047 185.857-146.891 197.902-118.062 4.808 11.506 2.845 16.082-36.755 85.662-18.497 32.5-33.939 59.894-34.315 60.875-.553 1.442 2.842 1.738 17.77 1.548 25.784-.327 26.243-.019 17.435 11.711-3.845 5.12-11.456 16.81-16.915 25.976s-10.437 17.266-11.062 18c-.626.733-9.558 1.633-19.849 2l-18.71.666-15.197 29.334c-16.627 32.095-16.416 31.5-12.583 35.333 5.598 5.599 11.956 3.117 33.84-13.21 16.01-11.945 14.9-11.844 20.362-1.857l2.333 4.267-11.77 11.011c-54.1 50.617-94.218 64.237-106.996 36.326-7.116-15.543-3.292-29.534 20.345-74.445 6.15-11.683 11.015-21.408 10.812-21.61-.202-.202-23.612.397-52.022 1.332l-51.655 1.7-58.958 58.702c-32.427 32.286-61.801 60.62-65.276 62.964-11.786 7.948-25.322 10.412-33.331 6.066zm263.42-189.796c18.206-1.352 33.605-2.98 34.218-3.62 3.291-3.433 64.992-108.647 63.343-108.014-1.786.685-129.853 105.887-135.961 111.687-3.33 3.16-4.936 3.163 38.4-.053zm-352.437 174.65c-7.7-1.338-29-5.5-47.334-9.247-85.282-17.434-120.908-19.147-150.443-7.235-50.347 20.307-58.499 7.624-24.414-37.981 18.996-25.417 16.762-24.313 60.179-29.714 27.048-3.364 22.82-1.14 38.849-20.434a7096.35 7096.35 0 0 1 25.649-30.667c6.867-8.152 33.958-40.322 60.201-71.489 99.378-118.02 150.097-156.976 169.697-130.335 14.418 19.597 6.772 46.385-31.112 109.002-17.947 29.664-16.87 27.063-11.966 28.915 10.942 4.13 2.605 14.81-30.272 38.78-28.93 21.09-40.03 24.284-44.024 12.666-6.96-20.244 16.485-67.3 57.691-115.785 8.85-10.415 10.762-15.243 6.035-15.243-7.467 0-44.359 38.483-108.717 113.406-10.99 12.793-24.8 28.66-30.69 35.26-21.375 23.955-35.696 40.745-35.185 41.253.287.286 19.122 4.192 41.856 8.68 68.637 13.55 146.447 30.728 148.483 32.78 1.631 1.643-41.514 42.578-48.503 46.017-8.732 4.296-26.157 4.816-45.98 1.37zm-1180-5.382c-26.54-2.22-34.356-12.229-30.745-39.37 4.16-31.258 11.516-42.594 96.174-148.205 34.56-43.114 62.174-78.609 61.366-78.878-8.053-2.685-100.129 18.13-100.129 22.636 0 .604 7.386 1.099 16.412 1.099 17.451 0 21.65 1.231 20.717 6.078-.659 3.42-4.794 5.237-19.14 8.407-6.593 1.457-20.089 5.11-29.989 8.116-59.262 17.998-69.465 11.861-57.31-34.47 8.545-32.568 23.325-45.565 69.851-61.427 114.998-39.205 237.07-29.98 277.514 20.973 41.87 52.749 35.68 129.22-15.097 186.543-57.954 65.424-194.245 116.481-289.624 108.498zm78.386-54.814c101.086-11.16 195.021-64.72 215.036-122.61 17.993-52.038-17.539-82.707-103.422-89.268a70174.15 70174.15 0 0 0-25.556-1.948l-8.221-.624-2.888 9.606c-4.653 15.482-14.428 29.132-99.876 139.47-28.616 36.953-33.042 44.558-31.223 53.651 1.002 5.012 7.187 10.158 13.47 11.208 2.728.456 5.56 1.033 6.294 1.281 3.002 1.018 24.28.57 36.386-.766zm645.6 54.155c-48.38-7.92-68.8-43.484-46.332-80.695 5.39-8.928 26.94-39.987 37.486-54.028l6.006-7.997-13.433-1.688c-22.81-2.867-33.361-11.068-27.972-21.743 4.333-8.585 19.065-13.207 58.804-18.452l20.546-2.711 22.12-21.818c30.129-29.715 46.49-40.899 67.81-46.352 10.7-2.736 20.312-3.377 20.312-1.354 0 2.633-13.923 21.667-28.693 39.228-8.535 10.148-15.197 18.772-14.804 19.165 2.46 2.46 62.285-11.175 80.164-18.272 49.623-19.698 64.613-44.475 35.746-59.088-25.344-12.83-88.984-5.244-165.55 19.734l-23.137 7.548 2.967 3.158c7.123 7.583.878 12.56-20.961 16.707-15.34 2.913-27.025 6.195-52.097 14.631-41.12 13.837-45.575-3.614-12.26-48.032 24.362-32.483 34.13-38.21 89.648-52.563 141.705-36.636 233.885-23.632 237.978 33.573 3.62 50.588-49.247 83.296-173.001 107.035-26.934 5.167-28.932 5.754-33.055 9.709-2.414 2.315-3.914 4.353-3.333 4.529.58.176 12.755 2.118 27.055 4.315 123.335 18.953 151.87 48.23 97.018 99.541-39.706 37.143-133.767 64.969-189.032 55.92zm71.506-54.784c38.52-6.693 85.396-31.08 89.249-46.431 3.327-13.257-22.492-24.328-71.783-30.78-26.287-3.442-46.407-4.2-48.153-1.816-.81 1.106-8.372 9.367-16.805 18.359-22.835 24.346-26.728 30.678-24.656 40.108 3.564 16.228 38.988 26.322 72.148 20.56zm-399.492 50.623c-56.88-14.938-81.628-90.691-50.864-155.696 34.844-73.626 141.556-155.704 223.95-172.252 18.858-3.788 31.547 1.23 45.151 17.85 15.763 19.26 14.16 25.404-8.926 34.201-11.218 4.275-23.978 10.615-23.978 11.914 0 .259 2.25-.052 5-.69 50.464-11.72 67.876 40.305 37.467 111.945-40.594 95.636-154.474 171.986-227.8 152.728zm37.333-37.29c23.237-7.35 46.996-20.382 64-35.104 86.637-75.011 129.298-169.425 76.215-168.674-33.354.471-90.598 34.293-114.38 67.578-14.456 20.234-21.418 23.108-25.173 10.392l-1.339-4.532-7.612 8.222c-36.484 39.407-54.538 92.852-39.556 117.094 6.55 10.6 24.32 12.465 47.845 5.024zm1352-154.064c-16.694-3.236-37.495-18.724-45.635-33.978-35.73-66.958 57.353-129.176 111.741-74.69 47.155 47.24 1.78 121.828-66.106 108.668zm35.727-14.68c36.909-12.698 48.01-56.488 21.443-84.579-26.852-28.392-75.225-20.858-91.856 14.307-19.922 42.125 24.21 86.169 70.413 70.272zm-25.565-13.356c-21.385-3.298-33.322-26.945-25.495-50.508 7.754-23.346 44.83-29.452 58.43-9.623 5.28 7.697 5.074 8.452-2.821 10.29l-7.058 1.643-1.965-3.799c-5.955-11.516-25.599-9.912-30.845 2.518-11.574 27.423 16.653 53.03 30.925 28.053l2.667-4.666 6.667 2.295c7.362 2.535 7.49 3.078 2.674 11.356-5.618 9.657-18.91 14.642-33.179 12.441zM877.106 405.377c-36.91-7.93-77.014-33.145-94.355-59.326-7.982-12.05-2.462-18.798 26.896-32.885 23.711-11.377 29.636-9.26 46.778 16.715 12.63 19.138 23.88 32.08 40.092 46.119 17.108 14.815 17.805 15.518 19.31 19.473 4.526 11.908-10.96 15.869-38.72 9.904z" style="display:inline;fill:#007ac2;fill-opacity:1" transform="translate(-78.286 -306.604)"/></svg>