<?xml version="1.0" encoding="UTF-8" standalone="no"?>
<!-- Created with Inkscape (http://www.inkscape.org/) -->

<svg
   version="1.1"
   id="svg1"
   width="3200"
   height="675"
   viewBox="0 0 3200 675.00002"
   sodipodi:docname="radobla.svg"
   inkscape:version="1.3.2 (091e20e, 2023-11-25)"
   xmlns:inkscape="http://www.inkscape.org/namespaces/inkscape"
   xmlns:sodipodi="http://sodipodi.sourceforge.net/DTD/sodipodi-0.dtd"
   xmlns="http://www.w3.org/2000/svg"
   xmlns:svg="http://www.w3.org/2000/svg">
  <defs
     id="defs1" />
  <sodipodi:namedview
     id="namedview1"
     pagecolor="#ffffff"
     bordercolor="#000000"
     borderopacity="0.25"
     inkscape:showpageshadow="2"
     inkscape:pageopacity="0.0"
     inkscape:pagecheckerboard="0"
     inkscape:deskcolor="#d1d1d1"
     inkscape:zoom="0.1906238"
     inkscape:cx="1875.4216"
     inkscape:cy="320.00201"
     inkscape:window-width="1312"
     inkscape:window-height="829"
     inkscape:window-x="0"
     inkscape:window-y="38"
     inkscape:window-maximized="0"
     inkscape:current-layer="g1" />
  <g
     inkscape:groupmode="layer"
     inkscape:label="Image"
     id="g1"
     transform="translate(-78.286374,-306.60438)">
    <path
       id="path2"
       style="display:inline;fill:#cbcccb;fill-opacity:1"
       inkscape:label="Line"
       d="M 192.19262 612.24305 C 186.14511 612.62688 180.94492 613.01285 165.3352 613.26454 L 119.69067 614.00086 L 115.3352 618.36024 C 109.02297 624.6756 109.01945 633.99337 115.3313 640.30946 L 119.68872 644.66688 L 147.77856 645.07704 C 157.18065 645.21396 160.46519 645.41493 164.00122 645.63172 C 167.31354 636.79922 173.38095 629.16876 181.75708 622.93836 C 184.57423 619.01849 188.11567 615.47519 192.19262 612.24305 z M 1637.2747 612.68446 C 1633.9716 613.00891 1629.9551 613.25873 1613.9582 613.28211 L 1589.7141 613.31727 C 1584.3808 624.39572 1577.8796 634.98379 1570.8118 645.33485 L 1609.0715 645.33485 C 1630.4095 645.33485 1642.0902 645.54511 1647.8684 645.76454 C 1653.0142 638.45493 1657.0732 632.20174 1660.761 627.1825 C 1646.2826 624.49096 1637.946 619.41503 1637.2747 612.68446 z M 2204.72 612.75282 C 2202.156 614.69868 2200.4311 616.2062 2197.4739 618.36219 C 2168.5449 639.45279 2157.4446 642.64586 2153.4504 631.02821 C 2152.8471 629.27341 2152.7652 627.06781 2152.6106 624.92665 C 2146.8599 626.06033 2143.262 624.29737 2141.4504 619.02821 C 2140.8875 617.39083 2140.8391 615.30958 2140.6672 613.33485 L 2124.7512 613.33485 L 2110.0754 613.33485 C 2102.3547 622.24142 2093.6677 632.29985 2089.7707 636.66688 C 2085.1694 641.82354 2086.0667 641.14603 2082.1965 645.54774 L 2182.6418 645.44618 C 2255.7821 645.37318 2274.759 645.51909 2283.5051 646.26063 C 2282.5063 640.3142 2289.4105 630.81535 2304.009 616.12977 C 2305.0461 615.08656 2306.3659 614.31799 2307.4465 613.30555 L 2253.1829 613.01454 L 2204.72 612.75282 z M 1045.5481 612.78602 C 1036.602 624.39366 1035.4265 626.31314 1023.8997 641.19813 C 1022.0716 643.55867 1022.0818 643.83079 1020.4465 645.95985 L 1105.679 645.65907 L 1183.0422 645.38758 C 1194.8176 638.1042 1205.3365 630.29596 1214.6614 622.0575 C 1217.2985 619.15678 1220.1257 616.2988 1222.4661 613.33485 L 1134.9114 613.33485 C 1085.7603 613.33485 1053.6281 613.07563 1045.5481 612.78602 z M 431.22973 613.16688 C 403.94893 620.30815 368.36569 627.5488 317.92114 636.78407 L 308.10083 638.5829 C 315.06328 640.83353 322.22287 643.14581 330.09301 645.69032 C 346.5092 645.51291 370.60279 645.33485 420.60083 645.33485 C 504.32793 645.33485 526.25152 645.49641 535.81762 646.29579 C 535.32673 640.83976 541.14724 632.33136 553.43091 619.20008 C 555.52565 616.96079 557.69222 615.36072 559.80786 613.32313 L 477.10473 613.22157 L 431.22973 613.16688 z M 980.65942 613.2079 L 924.55395 613.26454 L 869.48559 613.32313 C 866.64637 617.69276 864.52674 620.55017 861.80981 625.03797 C 854.12092 637.73854 851.32251 642.09248 845.63012 643.78407 C 845.17111 644.52884 844.60134 645.46381 844.18091 646.12196 C 883.55969 645.72965 944.30192 645.41935 955.30981 645.93055 C 961.99808 637.07612 971.21429 625.17212 980.65942 613.2079 z M 2044.3118 613.21766 L 1938.9758 613.26844 L 1858.4485 613.3075 C 1876.5987 620.26357 1889.2493 628.0477 1894.634 637.18446 C 1898.2245 639.79853 1901.3347 642.49578 1903.6614 645.33485 L 1960.4407 645.33485 L 2017.345 645.33485 C 2021.5252 640.33942 2025.8244 635.1699 2028.925 631.48915 C 2030.6803 629.4055 2040.2662 618.02146 2044.3118 613.21766 z M 1286.3157 613.31141 C 1280.8632 624.3864 1273.9836 635.08475 1265.8 645.33485 L 1272.6165 645.33485 L 1279.3899 645.33485 C 1280.529 634.66411 1283.2127 623.95696 1287.0598 613.31141 L 1286.6204 613.31141 L 1286.3157 613.31141 z M 1382.1379 613.33485 C 1374.4423 623.7177 1367.9376 634.58465 1362.9036 645.33485 L 1422.4329 645.33485 L 1482.8567 645.33485 C 1492.5904 634.51309 1501.1859 623.86106 1508.7707 613.33485 L 1445.9172 613.33485 L 1382.1379 613.33485 z M 2613.6262 618.495 C 2611.9988 621.09188 2610.6101 622.91976 2609.1731 625.3329 C 2603.7143 634.49952 2598.7379 642.59957 2598.1125 643.3329 C 2597.9572 643.51509 2595.3246 643.67116 2593.1809 643.83094 C 2592.8078 644.44438 2592.6308 644.72169 2592.2844 645.28797 L 2593.6418 645.28602 L 2705.5872 700.30946 L 2817.5325 755.33485 L 2879.5872 756.0829 L 2941.6418 756.8329 L 3024.3118 778.32118 L 3106.9758 799.81141 L 1612.6672 800.23915 L 118.36255 800.66688 L 114.00317 805.02625 C 106.1856 812.84392 108.83462 826.5304 118.97778 830.72938 C 120.44445 831.33653 822.59035 831.72219 1679.2864 831.58485 L 3236.9329 831.33485 L 3241.9543 826.31141 C 3246.4384 821.82743 3246.9758 820.56572 3246.9758 814.54188 C 3246.9758 800.77371 3257.7979 804.42775 3090.2258 761.64149 L 2942.8118 724.00086 L 2885.4504 724.00086 L 2828.0911 724.00086 L 2716.0832 668.8993 L 2613.6262 618.495 z M 1738.1184 637.63758 C 1730.8367 637.3631 1726.4525 637.73975 1724.5852 638.56141 C 1722.8643 640.46699 1721.5242 641.98664 1718.4407 645.2743 C 1718.4138 645.30295 1718.4167 645.30625 1718.3899 645.33485 L 1770.8372 645.33485 C 1789.0966 645.33485 1793.8608 645.67238 1801.2805 645.94422 C 1792.4954 644.00083 1782.7356 642.21372 1771.3977 640.72938 C 1758.2543 639.00867 1746.6525 637.95927 1738.1184 637.63758 z " />
    <path
       style="display:inline;fill:#007ac2;fill-opacity:1"
       d="m 1850.8823,968.13925 c -36.6321,-9.46263 -34.6096,-70.46577 2.9475,-88.90594 20.4476,-10.03955 47.2538,-3.56345 55.6039,13.4333 4.6014,9.36639 4.2754,10.88826 -2.5329,11.82143 -11.7016,1.60389 -13.1182,1.26636 -14.5187,-3.45945 -3.8114,-12.86078 -25.4161,-13.75745 -36.867,-1.53011 -10.4882,11.19935 -14.6212,34.13287 -8.0544,44.69285 8.6154,13.85421 29.7669,11.29967 38.0134,-4.59102 2.7654,-5.32876 2.9757,-5.35736 17.9656,-2.4429 l 4.3333,0.84253 -2.7154,5.48369 c -9.3655,18.91274 -33.6399,29.96022 -54.1753,24.65562 z m 415.2985,-0.58491 c -6.6106,-1.87053 -8.3809,-2.95215 -15.5246,-9.48485 -13.207,-12.07739 -14.2911,-35.13101 -2.6767,-56.9218 20.9865,-39.37464 81.8251,-34.22302 86.041,7.28568 3.767,37.08943 -32.8685,69.01652 -67.8397,59.12097 z m 26.2589,-16.7542 c 21.8433,-10.13492 29.3391,-47.74798 11.5507,-57.96017 -17.5012,-10.04725 -40.7947,7.1243 -43.7726,32.26841 -2.5178,21.25861 13.776,34.2503 32.2219,25.69176 z m 78.9566,17.0777 c -24.6718,-5.80954 -33.9063,-36.8882 -19.6231,-66.04133 16.8814,-34.45603 70.1595,-37.21927 80.234,-4.1613 1.8934,6.21284 2.1335,6.00789 -8.2887,7.07568 l -8.6324,0.88441 -2.3604,-5.35009 c -10.7467,-24.35782 -46.11,-3.76208 -47.3528,27.57846 -1.0669,26.90567 29.6456,36.13696 40.5861,12.19899 2.4165,-5.28733 2.6187,-5.40788 7.814,-4.65718 16.2349,2.34588 16.0621,2.15413 10.2292,11.35174 -11.1238,17.54038 -32.0798,25.95395 -52.6059,21.12062 z m 181.328,-0.4408 c -23.9717,-6.44647 -32.6982,-34.13621 -19.7547,-62.68255 19.1531,-42.2412 83.871,-39.8819 87.7776,3.19995 3.5017,38.61728 -31.5698,69.28555 -68.0229,59.4826 z m 27.9981,-17.49549 c 11.4511,-5.70634 20.4249,-21.79241 20.3547,-36.48685 -0.138,-28.83546 -35.2869,-31.75106 -49.1172,-4.07427 -14.372,28.7609 3.0734,53.36253 28.7625,40.56112 z m -958.2827,17.12392 c 0,-1.20034 18.536,-85.60339 19.507,-88.82421 1.1532,-3.82564 56.2935,-2.87017 63.0203,1.09202 20.5831,12.12389 12.6106,43.37206 -12.256,48.03707 -5.8895,1.10487 -5.8913,1.11345 -1.4046,6.43712 3.8275,4.54143 16.4666,29.45927 16.4666,32.46369 0,1.43926 -2.2263,1.75598 -10.203,1.45153 l -10.203,-0.38942 -5.6136,-13.43375 c -8.9784,-21.48564 -12.0495,-24.56624 -24.491,-24.56624 -5.18,0 -6.792,0.51386 -7.3196,2.33333 -0.3721,1.28333 -2.3256,9.98333 -4.3412,19.33333 l -3.6646,17 h -9.7486 c -5.3618,0 -9.7487,-0.42051 -9.7487,-0.93447 z m 60.6667,-52.53052 c 14.2721,-3.88057 18.5976,-19.05927 6.3968,-22.44736 -7.4169,-2.05962 -31.0542,-1.87287 -31.0977,0.24569 -0.019,0.91667 -1.1539,6.61667 -2.5222,12.66666 l -2.488,11 12.1889,-0.007 c 6.7038,-0.004 14.5888,-0.65999 17.5222,-1.45756 z m 31.5555,52.36074 c 0.2445,-0.60734 12.4445,-21.28233 27.1111,-45.94444 l 26.6667,-44.84019 11.3613,-0.0556 11.3614,-0.0556 7.2086,42.33333 c 3.9648,23.28333 7.4703,43.98333 7.79,45.99999 l 0.5814,3.66667 h -9.2524 -9.2524 l -1.8989,-10.33333 -1.899,-10.33333 -18.8524,-0.36905 -18.8523,-0.36904 -6.2744,10.70238 -6.2743,10.70237 h -9.9844 c -5.4915,0 -9.7844,-0.49691 -9.54,-1.10425 z m 67.1569,-39.22908 c -3.2083,-18.74379 -4.663,-30.69217 -3.9027,-32.05485 0.4946,-0.8865 -0.01,-0.71181 -1.117,0.38819 -1.8731,1.85807 -21.0261,34.11895 -21.0261,35.41598 0,0.32121 6.0272,0.58401 13.3938,0.58401 h 13.3937 z m 135.7776,38 c 0.3684,-1.28334 5.0091,-21.98333 10.3126,-46 l 9.6428,-43.66666 h 9.7773 c 5.3775,0 9.7773,0.26635 9.7773,0.59188 0,0.32554 -3.6,16.95853 -8,36.9622 -4.4,20.00366 -8,36.83731 -8,37.40811 0,0.57079 11.0438,1.0378 24.5418,1.0378 h 24.5418 l -0.6825,3 c -0.3754,1.65 -1.2424,5.25 -1.9266,8 l -1.244,5 h -34.7051 c -32.4188,0 -34.661,-0.15372 -34.0354,-2.33333 z m 75.7322,1.21284 c 0.2444,-0.61627 12.4444,-21.30477 27.1111,-45.97444 l 26.6667,-44.85395 11.3333,-0.024 11.3333,-0.024 7.1342,42.33173 c 3.9238,23.28246 7.4488,43.98174 7.8333,45.9984 l 0.6992,3.66667 h -9.4183 -9.4183 l -0.8748,-6.33333 c -0.4812,-3.48334 -1.3053,-8.13333 -1.8315,-10.33333 l -0.9566,-4 -18.8602,-0.3696 -18.8601,-0.3696 -6.1735,10.70293 -6.1734,10.70293 h -9.9945 c -5.4969,0 -9.7944,-0.50422 -9.5499,-1.12049 z m 67.2416,-38.54617 c -2.3267,-11.40547 -4.8577,-31.15669 -4.1412,-32.31609 0.4591,-0.74282 0.3493,-1.34196 -0.244,-1.33142 -0.8957,0.0159 -20.1051,32.2377 -21.5231,36.10273 -0.248,0.67605 5.5441,1.21144 13.1059,1.21144 h 13.5504 z m 77.9303,28.81795 c 1.3782,-6.13321 5.9576,-26.94715 10.1763,-46.25321 l 7.6703,-35.10192 24.0463,0.4383 c 37.2615,0.67917 48.4251,9.95569 47.855,39.76554 -0.6871,35.92804 -19.2094,50.56804 -65.3646,51.66406 l -26.8893,0.63852 z m 45.9374,-5.28993 c 23.3832,-5.88795 33.5945,-48.95269 13.9564,-58.85928 -7.485,-3.77589 -25.0016,-3.32727 -25.9497,0.66459 -2.8444,11.97535 -12.6716,57.17905 -12.6716,58.28771 0,1.85132 17.2008,1.78645 24.6649,-0.093 z m 275.3351,15.70932 c 0,-0.23613 3.6,-16.54293 8,-36.23734 10.1962,-45.63802 10.9296,-40.66667 -6,-40.66667 -7.7,0 -14,-0.27047 -14,-0.60104 0,-0.33057 0.6497,-3.63057 1.4438,-7.33333 l 1.4438,-6.73229 h 38.7008 38.7007 l -0.8757,3.48888 c -0.4816,1.91889 -1.2177,5.19931 -1.6358,7.28983 l -0.7602,3.80094 -14.144,0.37684 -14.1439,0.37684 -6.9815,31.33333 c -3.8398,17.23333 -7.6464,34.48333 -8.4592,38.33333 l -1.4779,7 h -9.9054 c -5.448,0 -9.9055,-0.19319 -9.9055,-0.42932 z m 167.9754,-1.17893 c -0.014,-0.9488 4.3365,-21.71419 9.6667,-46.14531 l 9.6912,-44.42023 29.3334,0.42023 c 38.0916,0.54571 43.237,3.08879 44.4388,21.96375 0.9648,15.15218 -6.4653,24.81601 -22.1571,28.81802 -6.9658,1.77655 -7.0187,1.8282 -4.3489,4.24435 2.6384,2.3877 16.1793,27.76183 17.9986,33.72744 0.8947,2.93377 0.6842,3 -9.536,3 h -10.451 l -6.3067,-15.08502 c -8.2157,-19.65086 -11.4241,-22.8916 -22.6767,-22.90511 l -8.2178,-0.01 -4.1279,18.66667 -4.1279,18.66666 -9.5771,0.39175 c -7.1381,0.29198 -9.5833,-0.0476 -9.6016,-1.33333 z m 64.9437,-53.48087 c 8.4027,-4.40447 11.2176,-13.96024 5.6079,-19.03756 -4.8359,-4.377 -34.1417,-4.66522 -35.1103,-0.34531 -3.4965,15.5945 -4.75,21.41485 -4.75,22.05585 0,1.8346 30.1401,-0.51746 34.2524,-2.67298 z m 71.0464,53.56308 c -0.019,-0.99401 4.3311,-21.79893 9.6667,-46.23316 l 9.7011,-44.42586 26.6667,0.42587 c 23.9534,0.38253 27.2093,0.70899 32,3.20851 15.7899,8.23831 15.3889,31.23358 -0.6605,37.88148 -4.2137,1.74535 -5.3701,4.00254 -2.0506,4.00254 1.0755,0 4.0755,2.12 6.6667,4.71111 11.1145,11.11456 2.7408,33.12636 -14.9223,39.2258 -7.5516,2.60772 -67.0206,3.67505 -67.0678,1.20371 z m 55.3678,-14.43596 c 10.6654,-2.46314 15.2039,-14.13326 7.7704,-19.98042 -3.2433,-2.55116 -5.0037,-2.76921 -19.6197,-2.43011 l -16.0568,0.37253 -2.3256,10 c -1.2791,5.5 -2.3502,10.75 -2.3803,11.66667 -0.066,2.02396 24.257,2.30091 32.612,0.37133 z m 8.1888,-41.77579 c 5.9004,-3.07245 8.1,-9.67986 4.7266,-14.19817 -3.2051,-4.29284 -6.3664,-5.10245 -20.5566,-5.26446 l -11.6413,-0.13291 -0.8215,3.66667 c -0.4518,2.01667 -1.3599,5.76667 -2.0179,8.33333 -0.6581,2.56667 -1.1999,6.09532 -1.204,7.84144 l -0.01,3.17478 13.6667,-0.61975 c 9.0012,-0.40818 15.0966,-1.36435 17.8554,-2.80093 z m 33.8112,56.80332 c 0,-1.17461 18.5239,-85.56147 19.4778,-88.73219 0.5868,-1.95067 2.3313,-2.33333 10.6375,-2.33333 h 9.9355 l -0.8962,3.57105 c -0.493,1.96408 -4.3013,18.91408 -8.4629,37.66666 l -7.5666,34.09562 24.4374,0.36275 c 13.8919,0.20621 24.4375,0.89712 24.4375,1.60104 0,0.68105 -0.6497,4.26781 -1.4438,7.97058 l -1.4438,6.73229 h -34.5562 c -19.0059,0 -34.5562,-0.42051 -34.5562,-0.93447 z m 76,0.031 c 0,-0.4969 12.0722,-21.1969 26.8271,-45.99999 l 26.827,-45.09654 h 11.0784 11.0785 l 1.3879,7 c 0.7634,3.85 4.1021,23.19999 7.4194,42.99999 3.3174,19.8 6.3468,37.35 6.732,39 0.6753,2.89211 0.3649,3 -8.6328,3 -10.5083,0 -9.8055,0.79767 -11.7468,-13.33333 l -1.0074,-7.33333 h -19.2547 -19.2547 l -6.0603,10.30251 -6.0602,10.30251 -9.6667,0.0308 c -5.3167,0.017 -9.6667,-0.37574 -9.6667,-0.87264 z m 64.7426,-52.32986 c -1.5084,-9.47833 -3.0426,-17.51625 -3.4092,-17.86204 -0.3667,-0.34579 -5.2855,7.40921 -10.9307,17.23333 l -10.264,17.86203 h 13.6732 13.6733 z m 38.4252,50.89999 c 0.9459,-3.24165 19.4989,-87.96825 19.4989,-89.04616 0,-2.53268 48.7092,0.13447 54,2.95686 13.3223,7.10684 17.3333,15.22661 17.3333,35.0893 0,28.86777 -14.823,47.71342 -40.8508,51.93678 -15.4433,2.50589 -50.7926,1.84336 -49.9814,-0.93678 z m 54.7514,-16.88212 c 10.4529,-6.12584 16.849,-18.91984 17.0564,-34.11788 0.2447,-17.92965 -5.1617,-23.30589 -23.4533,-23.32248 l -11.9615,-0.0109 -6.4089,28.66666 c -3.5249,15.76667 -6.426,29.79842 -6.447,31.18168 -0.064,4.22627 22.9248,2.46081 31.2143,-2.39713 z m 43.356,17.54878 c -0.032,-0.91666 4.3082,-21.61666 9.645,-45.99999 l 9.7031,-44.33333 h 35.6884 c 39.8958,0 37.1819,-0.76517 34.2849,9.66666 l -1.3886,5 h -25.9119 -25.9119 l -0.8215,3.66667 c -0.4518,2.01667 -1.3599,5.76667 -2.018,8.33333 -2.5407,9.90966 -3.9891,9.33333 23.4553,9.33333 13.5667,0 24.6667,0.27047 24.6667,0.60104 0,0.33057 -0.6497,3.63057 -1.4438,7.33334 l -1.4438,6.73229 h -25.1975 c -25.037,0 -25.2018,0.0191 -25.8886,3 -3.4662,15.04618 -4.6564,20.4796 -4.6733,21.33333 -0.011,0.55 12.2803,1 27.3137,1 h 27.3333 l -0.01,3 c 0,1.65 -0.6323,5.25 -1.3961,8 l -1.3885,5 h -37.2707 c -28.8966,0 -37.2837,-0.37447 -37.3288,-1.66667 z M 481.144,782.51569 c -4.06307,-1.62149 -5.32419,-3.50393 -5.35056,-7.98668 -0.0197,-3.34854 -0.25003,-3.44888 -6.53164,-2.8453 -7.85018,0.75431 -10.62706,-0.0854 -39.01701,-11.79819 -22.22149,-9.16789 -198.61314,-74.95623 -199.09738,-74.25684 -33.75609,48.75369 -40.70771,59.73767 -40.70771,64.32064 0,16.96644 -32.90197,37.26987 -43.39394,26.77791 -7.55668,-7.55669 -5.1099,-13.87101 23.90569,-61.69259 28.38736,-46.78618 26.41703,-41.84211 17.88296,-44.87314 -10.38712,-3.68918 -16.27052,-10.10512 -15.13738,-16.50755 4.51226,-25.49512 29.4422,-43.06207 67.70454,-47.7082 l 6.29521,-0.76441 35.22958,-50.92402 c 19.37627,-28.00821 35.08406,-51.08338 34.90621,-51.27816 -0.46668,-0.51108 -34.84709,5.89239 -52.05954,9.69627 -16.5898,3.66628 -50,13.98084 -50,15.43625 0,0.52721 6.99782,1.3958 15.55071,1.9302 19.96792,1.24765 22.34121,1.89242 22.85475,6.20918 0.54497,4.58093 -0.21272,4.78911 -28.37375,7.79609 -13.21744,1.41134 -30.89356,3.47808 -39.28027,4.59277 -25.76702,3.42474 -35.62268,2.09271 -38.97634,-5.26778 -4.2985,-9.43418 12.39068,-50.37853 26.13819,-64.12604 38.42508,-38.42507 212.38459,-63.23663 298.1027,-42.5179 55.81848,13.49177 73.18913,48.83735 49.58505,100.89504 -22.01568,48.55454 -43.98494,57.96639 -203.45354,87.16152 l -57.18583,10.46945 37.8525,12.2519 c 20.81887,6.73855 55.8525,18.06318 77.8525,25.16584 91.22806,29.45284 104.50697,39.43244 104.64351,78.64354 l 0.0232,6.64887 4.88945,-7.31554 c 11.53477,-17.25817 34.42073,-36.55323 57.10442,-48.14451 14.52774,-7.42362 14.846,-7.68946 33.12216,-27.66666 l 18.45348,-20.17102 h -20.17869 c -33.1998,0 -35.14112,-7.59398 -9.06687,-35.46743 23.37966,-24.99293 47.96041,-37.37222 75.94553,-38.24746 18.28477,-0.57186 15.07533,6.11349 -4.3869,9.13804 -15.13729,2.35243 -18.54925,3.67488 -18.54925,7.18953 0,3.7254 3.50405,4.23772 20.94082,3.06168 l 14.94082,-1.00769 63.37618,-52.55342 C 854.82568,433.06912 888.62824,412.87419 901.056,437.23461 c 6.87751,13.48103 5.45463,16.91081 -39.79334,95.91959 -16.95264,29.60149 -30.82298,54.13305 -30.82298,54.51457 0,0.38153 6.78926,0.2756 15.08724,-0.23539 13.54602,-0.83417 27.57943,0.60387 27.57943,2.82615 0,0.33531 -2.75478,4.1897 -6.12174,8.56532 -3.36696,4.37561 -11.09564,16.17156 -17.17484,26.21321 -12.74736,21.05616 -10.95528,19.97645 -33.46512,20.16233 l -16.09503,0.1329 -15.65461,30.6443 -15.65461,30.64429 3.3557,3.3557 c 6.70809,6.70809 11.93626,4.32319 44.30265,-20.20922 l 4.15907,-3.1524 4.09046,6.28826 c 4.90719,7.54381 6.15698,5.33438 -12.82117,22.66564 -58.10994,53.06726 -100.80773,60.83212 -105.01017,19.09676 -1.11538,-11.0771 2.45081,-20.78361 21.00642,-57.17548 7.24706,-14.21318 12.98111,-26.03751 12.74233,-26.27629 -0.23878,-0.23878 -23.67359,0.3305 -52.07734,1.26507 l -51.64319,1.69922 -60.9694,60.69934 c -71.7209,71.40321 -76.66613,74.9266 -94.93176,67.63721 z M 361.77303,576.6318 c 75.555,-19.6348 105.70893,-32.27281 125.46016,-52.58241 26.68934,-27.44384 0.22489,-35.66631 -92.659,-28.78903 -54.38043,4.02642 -48.88614,2.71832 -49.83002,11.86371 -0.99251,9.61643 -3.03151,13.36519 -28.46631,52.33604 -24.98151,38.27634 -23.73985,35.61597 -15.50483,33.22047 3.48333,-1.01327 30.93333,-8.23522 61,-16.04878 z m 381.11956,15.45294 c 18.9491,-1.40038 34.60804,-2.74233 34.79766,-2.98212 2.27478,-2.87675 64.96229,-109.32877 64.59134,-109.685 -0.67583,-0.649 -138.33619,112.96219 -138.43319,114.24901 -0.1,1.32612 -0.55462,1.34454 39.04419,-1.58189 z M 2227.4566,781.91286 c -18.6072,-10.09616 24.9902,-62.61221 68.3474,-82.32916 8.6581,-3.93733 10.867,-5.89134 27.431,-24.26627 l 18.0146,-19.98414 -17.7383,-0.32495 c -35.2884,-0.64647 -36.9492,-9.25432 -7.5013,-38.87788 24.8433,-24.99143 62.911,-41.45774 80.4384,-34.79385 8.6501,3.28875 3.1864,6.82436 -14.3692,9.29848 -20.4258,2.87862 -23.6782,11.95906 -3.6395,10.16134 4.7666,-0.42763 11.7921,-0.78177 15.6121,-0.78699 l 6.9455,-0.009 51.0545,-42.37656 c 154.2681,-128.0465 185.8568,-146.89125 197.9025,-118.06184 4.8077,11.50634 2.8444,16.08182 -36.7554,85.66203 -18.4968,32.50041 -33.9385,59.89404 -34.3148,60.87473 -0.5535,1.44236 2.842,1.73827 17.769,1.54859 25.7846,-0.32765 26.2442,-0.019 17.436,11.71083 -3.8446,5.11989 -11.4565,16.80889 -16.9153,25.97556 -5.4588,9.16666 -10.4368,17.26666 -11.0622,17.99999 -0.6255,0.73334 -9.5571,1.63334 -19.8481,2 l -18.711,0.66667 -15.1966,29.33333 c -16.6272,32.09485 -16.4156,31.50062 -12.5829,35.33333 5.5985,5.59854 11.9561,3.1167 33.8406,-13.21051 16.0101,-11.94453 14.9003,-11.84336 20.3611,-1.85619 l 2.3329,4.26663 -11.7693,11.0114 c -54.0998,50.61626 -94.2181,64.23669 -106.996,36.32592 -7.1162,-15.54365 -3.2926,-29.53445 20.3451,-74.44563 6.149,-11.68294 11.0144,-21.40727 10.812,-21.60963 -0.2023,-0.20235 -23.6125,0.39691 -52.0227,1.33169 l -51.6548,1.6996 -58.9578,58.70219 c -32.4267,32.28621 -61.8012,60.62001 -65.2764,62.96401 -11.7853,7.94887 -25.3216,10.41269 -33.3311,6.06676 z m 263.4199,-189.79633 c 18.2069,-1.3513 33.6053,-2.98033 34.2187,-3.62007 3.2908,-3.43236 64.9922,-108.64661 63.3432,-108.01384 -1.7866,0.68561 -129.8529,105.887 -135.9617,111.68722 -3.3289,3.16072 -4.9352,3.16295 38.3998,-0.0533 z m -352.4368,174.6504 c -7.7,-1.33819 -29,-5.49941 -47.3333,-9.24714 -85.2826,-17.4336 -120.9083,-19.14672 -150.4435,-7.23432 -50.3465,20.3062 -58.4986,7.62359 -24.4137,-37.98147 18.9963,-25.41674 16.7618,-24.31343 60.1786,-29.71351 27.0485,-3.36425 22.8199,-1.14002 38.8492,-20.43469 7.2395,-8.71428 18.7814,-22.51428 25.6488,-30.66666 6.8674,-8.15238 33.958,-40.32251 60.2013,-71.48917 99.3774,-118.02072 150.097,-156.97553 169.6972,-130.33473 14.4176,19.59643 6.7714,46.38472 -31.1121,109.00139 -17.9471,29.66441 -16.8709,27.06369 -11.9658,28.91515 10.9419,4.13013 2.6046,14.81019 -30.2729,38.77948 -28.929,21.09062 -40.0294,24.28451 -44.0236,12.66685 -6.9602,-20.24414 16.4854,-67.29924 57.6911,-115.78557 8.8503,-10.41408 10.7619,-15.24257 6.0346,-15.24257 -7.4668,0 -44.3585,38.48292 -108.7167,113.40589 -10.9895,12.79342 -24.7996,28.66077 -30.6891,35.26077 -21.3761,23.95448 -35.6967,40.74446 -35.1857,41.25276 0.2872,0.28571 19.1223,4.19151 41.8556,8.67955 68.6369,13.5504 146.4469,30.7278 148.4828,32.77923 1.6316,1.64395 -41.5135,42.57859 -48.5026,46.01771 -8.7317,4.29661 -26.1568,4.8162 -45.9802,1.37105 z M 958.43968,761.38547 c -26.54061,-2.22128 -34.35599,-12.22951 -30.7442,-39.3705 4.15969,-31.25816 11.51559,-42.59377 96.17342,-148.20528 34.5596,-43.11346 62.1743,-78.60857 61.3659,-78.87802 -8.0532,-2.68441 -100.12845,18.13085 -100.12845,22.63584 0,0.60452 7.38532,1.09913 16.41185,1.09913 17.4513,0 21.6501,1.23185 20.7168,6.07797 -0.6588,3.4211 -4.7939,5.23757 -19.1392,8.40745 -6.59421,1.45712 -20.08945,5.10932 -29.98945,8.11601 -59.26211,17.99825 -69.46533,11.86141 -57.30986,-34.46968 8.5447,-32.56849 23.32425,-45.56581 69.85059,-61.42748 114.99812,-39.20493 237.07032,-29.97924 277.51422,20.97332 41.8693,52.74828 35.6802,129.22056 -15.0972,186.54275 -57.9545,65.42426 -194.245,116.4811 -289.62442,108.49849 z m 78.38592,-54.81497 c 101.0866,-11.1604 195.0218,-64.71986 215.0368,-122.60858 17.9924,-52.03873 -17.5393,-82.7077 -103.4227,-89.26864 -9.5333,-0.72829 -21.0332,-1.60496 -25.5552,-1.94816 l -8.2219,-0.624 -2.8871,9.60609 c -4.6531,15.48139 -14.4281,29.13159 -99.8762,139.47065 -28.61608,36.95188 -33.04199,44.55689 -31.22325,53.6506 1.00235,5.01176 7.18704,10.15786 13.46955,11.20763 2.72841,0.45591 5.5607,1.03241 6.2941,1.28113 3.0019,1.01812 24.2808,0.56974 36.3859,-0.76672 z m 645.6006,54.15581 c -48.3804,-7.92108 -68.7995,-43.48424 -46.3322,-80.69522 5.3907,-8.92822 26.9401,-39.98698 37.486,-54.02788 l 6.0063,-7.99674 -13.4329,-1.68852 c -22.8108,-2.86734 -33.3615,-11.06824 -27.9727,-21.74281 4.3338,-8.58464 19.0653,-13.2071 58.8046,-18.4518 l 20.5456,-2.71155 22.121,-21.81786 c 30.1281,-29.71507 46.4889,-40.89854 67.8097,-46.35148 10.6987,-2.73628 20.3114,-3.37716 20.3114,-1.35418 0,2.63251 -13.9226,21.66688 -28.6934,39.2282 -8.5349,10.1474 -15.1965,18.77139 -14.8034,19.1644 2.4607,2.46077 62.2845,-11.17512 80.1635,-18.27201 49.6238,-19.69768 64.6131,-44.47457 35.7463,-59.08787 -25.3441,-12.83003 -88.9835,-5.2439 -165.5499,19.73437 l -23.1369,7.54795 2.9667,3.15785 c 7.1232,7.58237 0.878,12.56025 -20.9609,16.70717 -15.3407,2.91302 -27.0249,6.19445 -52.0966,14.63108 -41.1205,13.83703 -45.5752,-3.61473 -12.2607,-48.03277 24.3624,-32.48221 34.1297,-38.20896 89.6481,-52.56241 141.7056,-36.63582 233.885,-23.63173 237.9779,33.57242 3.6196,50.58793 -49.2469,83.29647 -173.0007,107.03561 -26.9343,5.1667 -28.9318,5.75336 -33.0551,9.70832 -2.4136,2.31512 -3.9136,4.35329 -3.3333,4.52926 0.5803,0.17596 12.7551,2.11788 27.0551,4.31536 123.3355,18.95299 151.87,48.22952 97.0181,99.54084 -39.7061,37.1431 -133.7665,64.96853 -189.0316,55.92027 z m 71.5055,-54.78384 c 38.5209,-6.6932 85.3962,-31.0801 89.2493,-46.43196 3.3271,-13.25622 -22.4917,-24.3273 -71.7829,-30.78039 -26.2869,-3.44142 -46.4066,-4.19983 -48.1529,-1.81511 -0.8097,1.10569 -8.3722,9.36706 -16.8055,18.35861 -22.8351,24.34658 -26.7272,30.67807 -24.6559,40.10887 3.5641,16.22703 38.9878,26.32172 72.1479,20.55998 z m -399.492,50.62271 c -56.8802,-14.93837 -81.6277,-90.69155 -50.8637,-155.69592 34.8445,-73.62664 141.5564,-155.70456 223.9506,-172.25265 18.8571,-3.78728 31.546,1.22954 45.1508,17.85134 15.7628,19.25831 14.159,25.40302 -8.9263,34.20018 -11.2185,4.27506 -23.9781,10.61507 -23.9781,11.9143 0,0.25852 2.25,-0.0525 5,-0.69107 50.4639,-11.71881 67.876,40.30543 37.4673,111.94531 -40.5943,95.63592 -154.4738,171.98624 -227.8006,152.72851 z m 37.3333,-37.29037 c 23.2368,-7.34963 46.9963,-20.38159 64,-35.10362 86.6373,-75.01155 129.2979,-169.42541 76.2151,-168.67453 -33.3539,0.4718 -90.5976,34.293 -114.3793,67.57855 -14.4566,20.23379 -21.4193,23.10803 -25.1742,10.39205 l -1.3385,-4.5327 -7.6122,8.22211 c -36.4842,39.40723 -54.5383,92.85207 -39.5555,117.09465 6.5505,10.59889 24.319,12.46451 47.8446,5.02349 z m 1352,-154.06348 c -16.6941,-3.23621 -37.4954,-18.72398 -45.6349,-33.97785 -35.7294,-66.95826 57.3526,-129.17609 111.7409,-74.68987 47.1551,47.23988 1.7808,121.82785 -66.106,108.66772 z m 35.7274,-14.68026 c 36.9086,-12.69843 48.0103,-56.48764 21.443,-84.57873 -26.8525,-28.39255 -75.2256,-20.85863 -91.856,14.3062 -19.9224,42.1259 24.2088,86.16909 70.413,70.27253 z m -25.5653,-13.35586 c -21.3854,-3.29816 -33.322,-26.94506 -25.4956,-50.5081 7.7543,-23.34591 44.8303,-29.45192 58.4313,-9.62299 5.2796,7.69712 5.0727,8.45174 -2.8222,10.29 l -7.0578,1.64335 -1.9648,-3.79951 c -5.9551,-11.51592 -25.5985,-9.91242 -30.8448,2.51787 -11.5741,27.42342 16.6527,53.02931 30.9251,28.05364 l 2.6667,-4.66646 6.6667,2.29543 c 7.362,2.53485 7.4899,3.07781 2.6746,11.3553 -5.6183,9.65776 -18.9105,14.64205 -33.1792,12.44147 z M 877.10635,405.37746 c -36.90956,-7.92976 -77.01445,-33.14579 -94.35575,-59.32637 -7.98123,-12.04946 -2.46172,-18.79796 26.89605,-32.88481 23.71147,-11.37756 29.6367,-9.26036 46.7783,16.71478 12.62952,19.13785 23.88021,32.0797 40.0924,46.11892 17.1076,14.81461 17.8051,15.51804 19.30891,19.47337 4.5272,11.90745 -10.95838,15.86848 -38.71991,9.90411 z"
       id="path4"
       inkscape:label="Text" />
  </g>
</svg>
