<?xml version="1.0" encoding="UTF-8" standalone="no"?>
<!-- Created with Inkscape (http://www.inkscape.org/) -->

<svg
   width="24.932634mm"
   height="24.93264mm"
   viewBox="0 0 24.932634 24.93264"
   version="1.1"
   id="svg1"
   xmlns="http://www.w3.org/2000/svg"
   xmlns:svg="http://www.w3.org/2000/svg">
  <defs
     id="defs1">
    <clipPath
       clipPathUnits="userSpaceOnUse"
       id="clipPath95-7-0-2">
      <path
         d="M 0,841.89 H 595.276 V 0 H 0 Z"
         transform="translate(-278.56011,-807.05662)"
         id="path95-1-8-9" />
    </clipPath>
  </defs>
  <g
     id="layer1"
     transform="translate(-142.99393,-14.816666)">
    <g
       id="g4"
       transform="translate(0,0.81306839)">
      <circle
         style="fill:#ef2e31;fill-opacity:1;stroke:#ef2e31;stroke-width:0.427812;stroke-dasharray:none;stroke-opacity:1"
         id="path28-8-9"
         cx="155.46024"
         cy="26.469917"
         r="12.252413" />
      <path
         id="path94-5-3-8"
         clip-path="url(#clipPath95-7-0-2)"
         style="fill:#ffffff;fill-opacity:1;fill-rule:evenodd;stroke:#ef2e31;stroke-width:0.566871;stroke-dasharray:none;stroke-opacity:1"
         d="m -3.60048e-4,1.9761313e-4 c 0,0 -1.743448052,-1.62142821313 -3.600586152,-4.80809261313 H 0.08899542 C 2.0441794,-1.6252534 3.8653628,1.9761313e-4 3.8653628,1.9761313e-4 Z m 21.231446048,0 L 7.7457341,-0.00273147 c 0,0 -1.8239483,-1.50519863 -3.7880861,-4.80516353 H 17.49134 c 1.941366,3.2344162 3.739746,4.80809261313 3.739746,4.80809261313 z m 18.048341,0 -11.288086,-0.002929083 -0.01172,-0.01171634 c 0,0 -1.813162,-1.50704569 -3.770508,-4.79344719 h 13.659668 c 0.592016,0.9595619 1.17198,1.7808601 1.69336,2.4487148 0.742233,-0.5193549 1.589108,-1.2796258 2.362793,-2.4487148 h 3.782227 C 44.694956,-2.6611448 43.43932,-1.0425571 42.15052,1.9761326e-4 H 41.713998 Z M -4.1575868,-5.8067129 c -0.657337,-1.2355213 -1.3063078,-2.6576027 -1.8808595,-4.2867161 h 3.5434572 c 0.6130689,1.6301461 1.304019,3.0493754 1.99951184,4.2867161 z m 7.5556644,0 C 2.7360791,-7.028432 2.0782076,-8.4470205 1.4835267,-10.093429 H 14.977668 c 0.601383,1.635288 1.268134,3.0586958 1.940918,4.2867161 z m 20.2485364,0 c -0.662895,-1.2221936 -1.321135,-2.640147 -1.917481,-4.2867161 h 13.552735 c 0.619215,1.6327109 1.307422,3.0589964 1.999512,4.2867161 z m 18.859864,0 c 0.572454,-1.1067021 1.068508,-2.5036184 1.400391,-4.2867161 h 3.484863 c -0.306421,1.5878064 -0.733005,3.0168801 -1.246582,4.2867161 z M -6.491083,-11.511106 c -0.3816265,-1.260717 -0.7200711,-2.60881 -0.9726563,-4.075821 h 3.4379884 c 0.2757039,1.463519 0.6349399,2.816675 1.0429688,4.075821 z m 7.4956058,0 c -0.39077838,-1.248262 -0.73936783,-2.602533 -1.02539066,-4.075821 H 13.452766 c 0.284854,1.473807 0.646612,2.818496 1.047363,4.075821 z m 20.2456062,0 c -0.392174,-1.248398 -0.743765,-2.602912 -1.03125,-4.075821 h 13.492677 c 0.293272,1.467388 0.660454,2.822364 1.072265,4.075821 z m 22.873537,0 c 0.147179,-1.199067 0.220587,-2.558076 0.210937,-4.075821 h 3.572754 c -0.0085,1.444733 -0.105179,2.806459 -0.28125,4.075821 z m -51.7998077,-5.493498 c -0.1417518,-1.081834 -0.2428458,-2.211819 -0.2885742,-3.396274 h 3.376465 c 0.057784,1.182497 0.1695514,2.315469 0.3266602,3.396274 z m 7.40625039,0 c -0.16998371,-1.07627 -0.30577151,-2.206149 -0.39990237,-3.396274 H 12.831672 c 0.08148,1.184815 0.205757,2.319236 0.37207,3.396274 z m 20.23974731,0 c -0.171072,-1.076432 -0.309249,-2.206274 -0.404297,-3.396274 H 33.06556 c 0.08436,1.185952 0.215967,2.317844 0.388183,3.396274 z m 24.33545,0 c -0.02195,-0.548502 -0.04948,-1.106471 -0.09375,-1.69594 -0.04474,-0.595467 -0.115323,-1.161529 -0.209472,-1.700334 h 3.577148 c 0.115319,0.697353 0.202841,1.428754 0.254883,2.199743 0.02749,0.407345 0.03899,0.801089 0.05273,1.196531 z m -52.2993188,-4.673355 c -0.00671,-1.097756 0.024395,-2.151003 0.084961,-3.16634 h 3.3427737 c -0.057621,1.014788 -0.080095,2.070052 -0.061523,3.16634 z m 7.23925818,0 c -0.0557578,-1.094993 -0.0591023,-2.14874 -0.0234375,-3.16634 H 12.768684 c -0.03729,0.825379 -0.05071,1.672144 -0.0293,2.546839 0.0051,0.209996 0.01688,0.412624 0.0249,0.619501 z m 20.23535262,0 c -0.05684,-1.095156 -0.06123,-2.148598 -0.02637,-3.16634 h 13.549805 c -0.0365,0.815562 -0.05295,1.649881 -0.03223,2.514619 0.0055,0.222154 0.02195,0.433036 0.03076,0.651721 z m 24.237306,0 c -0.319937,-1.209682 -0.768914,-2.253387 -1.296387,-3.16634 h 3.852539 c 0.422875,0.953057 0.781851,2.002849 1.051758,3.16634 z m -51.5478543,-4.298432 c 0.08885,-1.048748 0.214744,-2.047793 0.3647461,-3.005241 h 3.3515627 c -0.1581459,0.957232 -0.2846065,1.957631 -0.3735352,3.005241 z m 7.1059574,0 c 0.070521,-1.046223 0.18872485,-2.045183 0.34130861,-3.005241 H 13.200812 c -0.160803,0.958888 -0.279589,1.962895 -0.360351,3.005241 z m 20.2309579,0 c 0.06976,-1.046403 0.187759,-2.045029 0.339844,-3.005241 H 33.4347 c -0.160182,0.956366 -0.272636,1.964703 -0.353027,3.005241 z m 22.170411,0 c -0.990644,-1.329668 -2.151238,-2.300658 -3.298828,-3.005241 h 5.189942 c 0.786458,0.848642 1.523466,1.839258 2.15625,3.005241 z m -49.0019552,-3.85614 c 0.1704134,-0.954534 0.3713927,-1.854538 0.5903321,-2.715261 h 3.3969728 c -0.235414,0.859941 -0.4478361,1.762569 -0.628418,2.715261 z m 7.08544961,0 c 0.17712591,-0.950653 0.39146253,-1.853275 0.63281253,-2.715261 H 14.007941 c -0.246485,0.861577 -0.464293,1.767416 -0.648925,2.715261 z m 20.22802859,0 c 0.176654,-0.950834 0.391704,-1.85312 0.632812,-2.715261 h 17.948732 c 1.317687,0.596913 2.774599,1.464373 4.141113,2.715261 h -5.958985 c -1.251311,-0.545946 -2.349194,-0.808739 -2.975097,-0.921197 -0.06684,0.297583 -0.117468,0.614532 -0.177246,0.921197 z m -26.5253922,-3.425564 c 0.2351239,-0.850949 0.4869337,-1.654876 0.7558594,-2.410637 h 3.4643557 c -0.2920243,0.757473 -0.5683258,1.558543 -0.8217774,2.410637 z m 7.13525428,0 c 0.26010116,-0.84982 0.54763602,-1.651591 0.85253912,-2.410637 H 15.091926 c -0.308929,0.764174 -0.607017,1.556451 -0.873047,2.410637 z m 20.22802792,0 c 0.259994,-0.850338 0.547521,-1.651172 0.85254,-2.410637 h 13.650879 c -0.249234,0.605329 -0.49049,1.22826 -0.710449,1.889259 0.427558,0.07068 1.178449,0.226933 2.102051,0.521378 z m -26.3598642,-3.12094 c 0.307864,-0.808411 0.6305172,-1.541081 0.9580079,-2.234892 h 3.58593767 c -0.35661547,0.693272 -0.70739967,1.428056 -1.04150397,2.234892 z m 7.2846684,0 c 0.3475384,-0.803633 0.7130784,-1.540564 1.0869141,-2.234892 H 16.46302 c -0.372108,0.696881 -0.738577,1.430144 -1.086914,2.234892 z m 20.2265638,0 c 0.347685,-0.804087 0.714217,-1.540217 1.088379,-2.234892 h 13.668457 c -0.381293,0.693324 -0.755318,1.436313 -1.108886,2.234892 z M -4.2996767,-39.17924 c 0.3755685,-0.754393 0.7512102,-1.445924 1.1206056,-2.056218 h 3.7119142 c -0.40511045,0.613325 -0.8164346,1.298206 -1.22753912,2.056218 z m 7.4428715,0 c 0.4303836,-0.758577 0.862276,-1.439035 1.2875977,-2.056218 H 18.034797 c -0.416866,0.616924 -0.84116,1.300413 -1.265625,2.056218 z m 20.2294932,0 c 0.430294,-0.757987 0.860787,-1.43943 1.286133,-2.056218 h 13.708008 c -0.43195,0.61672 -0.872453,1.302334 -1.30957,2.056218 z m -26.1958021,-2.621531 c 0.4796441,-0.748269 0.9284069,-1.372693 1.3271485,-1.877544 h 3.8613283 c -0.4353379,0.505867 -0.9255586,1.128952 -1.44873051,1.877544 z m 7.6494145,0 c 0.542453,-0.745726 1.0533275,-1.369171 1.5043946,-1.877544 H 19.88636 c -0.436973,0.508691 -0.932817,1.134026 -1.461914,1.877544 z m 20.2294936,0 c 0.542509,-0.745181 1.053113,-1.369396 1.504394,-1.877544 h 13.728516 c -0.453535,0.508578 -0.973155,1.137949 -1.519043,1.877544 z m -26.2060564,-2.303725 c 0.67972995,-0.810908 1.149902352,-1.240468 1.149902352,-1.240468 H 3.9928042 c 0,0 -0.5044723,0.417237 -1.2539063,1.240468 z m 7.8676761,0 c 0.7623081,-0.814393 1.275879,-1.240468 1.275879,-1.240468 l 13.4882823,0.0044 c 0,0 -0.501972,0.451227 -1.214356,1.236074 z m 20.2294933,0 c 0.763765,-0.81522 1.278809,-1.240468 1.278809,-1.240468 l 13.724121,0.0073 c 0,0 -0.515443,0.443491 -1.259765,1.233145 z"
         transform="matrix(0.35277777,0,0,-0.35285037,148.05447,18.469957)" />
    </g>
  </g>
</svg>
